<svg version="1.1" id="Layer_1" xmlns="http://www.w3.org/2000/svg" xmlns:xlink="http://www.w3.org/1999/xlink" x="0px" y="0px" viewBox="0 0 500 500" style="width: 158px;" xml:space="preserve" data-imageid="alien-2-89" imageName="Alien 2" class="illustrations_image">
<style type="text/css">
	.st0_alien-2-89{fill:#9C6FCE;}
	.st1_alien-2-89{fill:#1B661E;}
	.st2_alien-2-89{opacity:0.51;fill:#FFCF49;enable-background:new    ;}
	.st3_alien-2-89{fill:#21214F;}
	.st4_alien-2-89{opacity:0.2;fill:#FFFFFF;enable-background:new    ;}
	.st5_alien-2-89{fill:#FFCF49;}
	.st6_alien-2-89{fill:#71E3D1;}
	.st7_alien-2-89{opacity:0.3;fill:#21214F;enable-background:new    ;}
	.st8_alien-2-89{opacity:0.7;fill:#FFFFFF;enable-background:new    ;}
	.st9_alien-2-89{opacity:0.32;fill:#21214F;enable-background:new    ;}
	.st10_alien-2-89{fill:#68E1FD;}
	.st11_alien-2-89{opacity:0.46;fill:url(#SVGID_1_);enable-background:new    ;}
	.st12_alien-2-89{fill:#7F3500;}
	.st13_alien-2-89{fill:#52AF45;}
	.st14_alien-2-89{fill:url(#SVGID_00000021813097974814685740000007585263378011085467_);}
</style>
<g id="field_alien-2-89">
	<path class="st0_alien-2-89" d="M256.8,409l212.7-125.7c6.8-3.8,12.6-10,6-14.1L262,146.1c-3.2-2-8.1-3.3-11.3-1.4L27.4,274.3&#10;&#9;&#9;c-6.8,3.9-8,14.9-1.2,18.9l202.6,115.6C237.4,413.8,248,413.9,256.8,409z"/>
	<ellipse class="st1_alien-2-89" cx="245.2" cy="294.5" rx="116.2" ry="47"/>
</g>
<g id="ufo_alien-2-89">
	<path class="st2_alien-2-89" d="M174.8,142.1l-44.6,137.3c-1.9,5.9-2.6,15.8-0.1,21.5c8.1,18.5,42.2,42.2,123.7,40.7&#10;&#9;&#9;c76.1-1.4,107.6-29.4,107.8-45c0.1-5.1,0.3-10.3-0.5-13l-43-147.7"/>
	<ellipse class="st3_alien-2-89" cx="248.6" cy="144" rx="75.6" ry="39.7"/>
	<ellipse class="st3_alien-2-89" cx="248.6" cy="139.1" rx="75.6" ry="39.7"/>
	<ellipse class="st4_alien-2-89" cx="248.6" cy="139.1" rx="75.6" ry="39.7"/>
	<circle class="st5_alien-2-89" cx="189" cy="132.2" r="4.2"/>
	<circle class="st5_alien-2-89" cx="307.7" cy="132.2" r="4.2"/>
	<circle class="st5_alien-2-89" cx="197.4" cy="151.7" r="4.2"/>
	<circle class="st5_alien-2-89" cx="215.7" cy="160.8" r="4.2"/>
	<circle class="st5_alien-2-89" cx="244.5" cy="166.7" r="4.2"/>
	<circle class="st5_alien-2-89" cx="272" cy="162.5" r="4.2"/>
	<circle class="st5_alien-2-89" cx="293.8" cy="149.5" r="4.2"/>
	<circle class="st5_alien-2-89" cx="293.8" cy="117" r="4.2"/>
	<circle class="st5_alien-2-89" cx="204.6" cy="117" r="4.2"/>
	<path class="st6_alien-2-89" d="M203,133.9c0,0,1.1-46.5,45.6-46.5c45.5,0,44.6,45,44.6,45s-2,24.2-45.6,24.2S203,133.9,203,133.9z"/>
	<path class="st7_alien-2-89" d="M276.4,95.2c1.1,6.4,1.9,12.9,1.1,19.4c-0.7,7.7-4.2,14.9-9.9,20.2c-6.8,6.1-15.9,10.1-24.7,12.3&#10;&#9;&#9;c-10.1,2.4-20.5,2.6-30.7,0.5c6.3,4.8,17.2,9,36,9c43.6,0,45.6-24.2,45.6-24.2S294.2,108.1,276.4,95.2z"/>
	<path class="st8_alien-2-89" d="M234.9,97c-1-1.7-3.2-2.3-4.9-1.3c-6.9,3.4-12,9.5-14.2,16.8c-1.3,4.4,5.6,6.3,6.9,1.9&#10;&#9;&#9;c1.6-5.6,5.6-10.1,10.9-12.6C235.3,100.9,235.9,98.7,234.9,97z"/>
</g>
<g id="alien_alien-2-89">
	<ellipse class="st9_alien-2-89" cx="250.6" cy="311.1" rx="65.8" ry="13.8"/>
	<path class="st10_alien-2-89 targetColor" d="M199.3,231.8c-0.7,0.2-1.4,0.4-2,0.8c-4.2,2.3-5.4,7.1-4.1,11.5c3,10.2,17.3,11.4,23.7,3.8&#10;&#9;&#9;c0.3-0.4,0.6-0.8,0.8-1.2c1.8-3.6-2.1-8.1-4.6-10.2C209.8,233.6,204,230.7,199.3,231.8z" style="fill: rgb(4, 144, 153);"/>
	<path class="st3_alien-2-89" d="M199.8,242.2c2.5-1.4,6.5-0.8,8,1.7c2.1,3.4-6.9,4.2-8.6,3.4c-2-1-1.7-3.5-0.1-4.7&#10;&#9;&#9;C199.3,242.4,199.5,242.3,199.8,242.2z"/>
	<path class="st3_alien-2-89" d="M208.6,238.4c0,0-5.5-2.7-4.9-4.8c0.5-1.5,2.6-0.6,3.5-0.1c1.2,0.6,2,1.6,2.4,2.9&#10;&#9;&#9;C210.1,237.4,210.3,239.4,208.6,238.4z"/>
	<path class="st3_alien-2-89" d="M210,241l0.1-0.1c0.1-0.2,0.3-0.3,0.5-0.2c0.2,0.1,0.3,0.3,0.2,0.5l-0.1,0.1c-0.1,0.2-0.3,0.3-0.5,0.2&#10;&#9;&#9;C210,241.4,209.9,241.2,210,241z"/>
	<path class="st3_alien-2-89" d="M209.4,242.4c0.1-0.2,0.3-0.3,0.5-0.2c0.2,0.1,0.3,0.3,0.2,0.5s-0.3,0.3-0.5,0.2&#10;&#9;&#9;C209.4,242.7,209.3,242.5,209.4,242.4L209.4,242.4z"/>
	<path class="st10_alien-2-89 targetColor" d="M225.3,256.3c0,0-4.4,2.2-13.6,0.4s-16-1.9-20.8-10.1s-6.2-15.3-9.6-14.4s3.5,6.3,1.3,7.5s-8.5-4.9-9.3-1&#10;&#9;&#9;s4.8,2.6,8.5,6.9s11.5,14.6,20.2,19.3s22.2,3.6,25.6,1.5s7.1-15.4,3.1-23.6s-11.4-12.6-12.2-24.2s1.6-18.9-1.2-20.1&#10;&#9;&#9;s-0.6,3.4-2.8,5.4s-2.8-5-5.8-2.8s0.1,5.8,0.1,5.8c3,4.9,4.7,3.1,4.4,7.7s1,16.8,4.3,23.3S228,251.3,225.3,256.3z" style="fill: rgb(4, 144, 153);"/>
	<path class="st10_alien-2-89 targetColor" d="M227.4,240.9c1,0.6,14.3,15.7,21.3,13.1s8.1-8.8,14.3-17s6.8-8.1,14.9-7.8s23.6-8.8,25.4-19.4&#10;&#9;&#9;s3.4-16.8,5.8-15.8s3.8,9.8,2.6,15.8s-1.2,11-3.1,13.3s-3.5,1.5-8.7,4.6s-9.5,7.9-20.2,10.8s-14.6,15.1-15.1,19.1&#10;&#9;&#9;s11.3-7.1,17.1,2.1s4,21.4,12.9,23.2s13.6,1.8,18.2,1.3s4.2,1.8-2.4,4.9s-12.9,0.7-17,1.4S281,277.9,281,277.9&#10;&#9;&#9;c-3.7-8.6-1.6-15.9-12.2-10.1s-23.2,12.3-45.2-1.8" style="fill: rgb(4, 144, 153);"/>
	<path class="st10_alien-2-89 targetColor" d="M212.7,248.9c1.7-0.4,6.4,12.7,9.5,10s6.3-6.8,5.2-9.9c0,0-6,1.1-9.6-2.4" style="fill: rgb(4, 144, 153);"/>
</g>
<g id="tree2_alien-2-89">
	
		<linearGradient id="SVGID_1_-alien-2-89" gradientUnits="userSpaceOnUse" x1="432.9619" y1="248.5681" x2="401.3519" y2="218.0981" gradientTransform="matrix(1 0 0 -1 0 502)">
		<stop offset="3.000000e-02" style="stop-color:#7F3500"/>
		<stop offset="1" style="stop-color:#9C6FCE;stop-opacity:0"/>
	</linearGradient>
	<path class="st11_alien-2-89" d="M379.3,279.1l55.9-16.7l6.6,8.6l-30.2,26.5L379.3,279.1z"/>
	<path class="st12_alien-2-89" d="M440.7,273.3v-40.2H432v40.5C435,274.5,438.2,274.6,440.7,273.3z"/>
	<path class="st12_alien-2-89" d="M437.2,233.2v41.2c1.2-0.1,2.4-0.4,3.5-1v-40.2H437.2z"/>
	<path class="st13_alien-2-89" d="M448.5,236.8c5.4-0.3,12.4-2.2,10.4-8.3c-1.2-3.6-4.9-6.7-7.3-9.6s-1.9-4.8-4.5-7.5c2.3,0.1,5.5-0.3,6.1-2.6&#10;&#9;&#9;c0.5-2-10-13.9-14.6-18.8c-1-1.1-2.8-1.2-4-0.3c-5.4,4.3-19.3,15.8-17.3,19.1c1.2,2,3.5,2.7,5.6,2.9c-5,5-10.7,11.2-11.2,17.9&#10;&#9;&#9;c-0.5,5.8,5.4,6.5,10.9,6.2c-3.8,4.6-14.1,17.8-11.8,21.7c1.2,2.1,5.2,2.8,7.6,3.3c5.1,1,10.4,1.5,15.6,1.5&#10;&#9;&#9;c5.3,0.1,10.5-0.7,15.5-2.3c2.8-0.9,5.3-2.3,7.6-4.2c2.4-2.3,1.1-4.7-0.5-7C453.9,244.9,451.2,240.9,448.5,236.8z"/>
	<path class="st1_alien-2-89" d="M447.1,211.4c0,0-6.6-0.4-11.2-0.3l23.4,19.2c0,0,0.6-2.2-3.5-6.8C452.5,219.7,449.7,215.7,447.1,211.4z"/>
	<path class="st1_alien-2-89" d="M448.5,236.8h-13.6l22.2,19.1c1.4-1,1.8-2.9,1-4.4C456.6,248.9,448.5,236.8,448.5,236.8z"/>
</g>
<g id="tree1_alien-2-89">
	
		<linearGradient id="SVGID_00000124861967462055410850000018374196565223367307_-alien-2-89" gradientUnits="userSpaceOnUse" x1="83.834" y1="234.1759" x2="61.134" y2="210.9659" gradientTransform="matrix(1 0 0 -1 0 502)">
		<stop offset="3.000000e-02" style="stop-color:#7F3500"/>
		<stop offset="1" style="stop-color:#9C6FCE;stop-opacity:0"/>
	</linearGradient>
	<path style="fill:url(#SVGID_00000124861967462055410850000018374196565223367307_);" d="M91.4,275.5l-8.9-3.7l-37.6,19.8l18.7,12&#10;&#9;&#9;C71.4,298.1,84,281.6,91.4,275.5z"/>
	<path class="st12_alien-2-89" d="M85.8,277.1c2.2,0.5,3.8-0.5,5.6-1.6v-62.7c0-0.8-0.6-1.4-1.4-1.4c0,0,0,0,0,0h-7.3c-0.8,0-1.4,0.6-1.4,1.4&#10;&#9;&#9;v61.5C82.4,275.8,84,276.8,85.8,277.1z"/>
	<path class="st13_alien-2-89" d="M111.3,225.1c-2.3-10.1-12.7-54.6-31-41.5c-9.3,6.7-12,17.2-15.8,27.4c-3.1,8.5-5.7,17.4-5.8,26.5&#10;&#9;&#9;c-0.3,18.5,18.5,20.8,32.9,20.7c8.3,0,20.2-4.9,22.1-14c1.2-5.4-0.8-11.9-2-17.2C111.6,226.4,111.4,225.7,111.3,225.1z"/>
	<path class="st1_alien-2-89" d="M112.2,227c-0.1-0.6-0.3-1.3-0.4-2c-2.1-8.9-10.4-44.7-24.9-43.9c4.3,18.9,10.7,38.8,7.3,58.1&#10;&#9;&#9;c-1.1,6.8-3.7,13.2-7.7,18.7c1.9,0.1,3.8,0.1,5.7,0.1c8.3,0,20.2-4.9,22.1-14C115.3,238.8,113.3,232.4,112.2,227z"/>
</g>
</svg>